<mxfile host="app.diagrams.net" modified="2020-11-11T22:17:15.380Z" agent="5.0 (Windows NT 10.0; Win64; x64) AppleWebKit/537.36 (KHTML, like Gecko) Chrome/86.0.4240.193 Safari/537.36" etag="_UWq56RsgQoU0Ez1nbHY" version="13.9.6" type="github">
  <diagram id="6a731a19-8d31-9384-78a2-239565b7b9f0" name="Page-1">
    <mxGraphModel dx="1038" dy="585" grid="1" gridSize="10" guides="1" tooltips="1" connect="1" arrows="1" fold="1" page="1" pageScale="1" pageWidth="1169" pageHeight="827" background="#ffffff" math="0" shadow="0">
      <root>
        <mxCell id="0" />
        <mxCell id="1" parent="0" />
        <mxCell id="qolOK50Bnka5AB42VE0z-70" value="" style="shape=parallelogram;perimeter=parallelogramPerimeter;whiteSpace=wrap;html=1;fixedSize=1;" vertex="1" parent="1">
          <mxGeometry x="265" y="506" width="120" height="60" as="geometry" />
        </mxCell>
        <mxCell id="2" value="start" style="shape=mxgraph.flowchart.terminator;strokeWidth=2;gradientColor=none;gradientDirection=north;fontStyle=0;html=1;" parent="1" vertex="1">
          <mxGeometry x="260" y="60" width="120" height="30" as="geometry" />
        </mxCell>
        <mxCell id="5" value="Take name as input" style="shape=mxgraph.flowchart.data;strokeWidth=2;gradientColor=none;gradientDirection=north;fontStyle=0;html=1;" parent="1" vertex="1">
          <mxGeometry x="244.5" y="250" width="159" height="80" as="geometry" />
        </mxCell>
        <mxCell id="7" style="fontStyle=1;strokeColor=#003366;strokeWidth=1;html=1;" parent="1" source="2" edge="1">
          <mxGeometry relative="1" as="geometry">
            <mxPoint x="320" y="130" as="targetPoint" />
          </mxGeometry>
        </mxCell>
        <mxCell id="8" style="fontStyle=1;strokeColor=#003366;strokeWidth=1;html=1;" parent="1" target="5" edge="1">
          <mxGeometry relative="1" as="geometry">
            <mxPoint x="320" y="210" as="sourcePoint" />
          </mxGeometry>
        </mxCell>
        <mxCell id="9" style="entryX=0.5;entryY=0;entryPerimeter=0;fontStyle=1;strokeColor=#003366;strokeWidth=1;html=1;" parent="1" source="5" edge="1">
          <mxGeometry relative="1" as="geometry">
            <mxPoint x="320" y="390" as="targetPoint" />
          </mxGeometry>
        </mxCell>
        <mxCell id="12" value="" style="edgeStyle=elbowEdgeStyle;elbow=horizontal;fontColor=#001933;fontStyle=1;strokeColor=#003366;strokeWidth=1;html=1;" parent="1" edge="1">
          <mxGeometry width="100" height="100" as="geometry">
            <mxPoint x="320" y="447" as="sourcePoint" />
            <mxPoint x="320" y="510" as="targetPoint" />
          </mxGeometry>
        </mxCell>
        <mxCell id="17" value="" style="edgeStyle=elbowEdgeStyle;elbow=horizontal;fontStyle=1;strokeColor=#003366;strokeWidth=1;html=1;" parent="1" edge="1">
          <mxGeometry y="-24" width="100" height="100" as="geometry">
            <mxPoint x="320" y="566" as="sourcePoint" />
            <mxPoint x="320" y="616" as="targetPoint" />
          </mxGeometry>
        </mxCell>
        <mxCell id="45" value="" style="edgeStyle=elbowEdgeStyle;elbow=horizontal;exitX=1;exitY=0.5;exitPerimeter=0;entryX=0.905;entryY=0.5;entryPerimeter=0;fontStyle=1;strokeColor=#003366;strokeWidth=1;html=1;" parent="1" target="34" edge="1">
          <mxGeometry width="100" height="100" as="geometry">
            <mxPoint x="380.5" y="1119.25" as="sourcePoint" />
            <mxPoint x="100" as="targetPoint" />
            <Array as="points">
              <mxPoint x="950" y="1320" />
            </Array>
          </mxGeometry>
        </mxCell>
        <mxCell id="qolOK50Bnka5AB42VE0z-56" value="" style="rounded=0;whiteSpace=wrap;html=1;" vertex="1" parent="1">
          <mxGeometry x="265" y="140" width="120" height="60" as="geometry" />
        </mxCell>
        <mxCell id="qolOK50Bnka5AB42VE0z-62" value="" style="whiteSpace=wrap;html=1;" vertex="1" parent="1">
          <mxGeometry x="260" y="390" width="120" height="60" as="geometry" />
        </mxCell>
        <mxCell id="qolOK50Bnka5AB42VE0z-63" value="Print Greeting &lt;br&gt;Message" style="text;html=1;resizable=0;autosize=1;align=center;verticalAlign=middle;points=[];fillColor=none;strokeColor=none;rounded=0;" vertex="1" parent="1">
          <mxGeometry x="280" y="155" width="90" height="30" as="geometry" />
        </mxCell>
        <mxCell id="qolOK50Bnka5AB42VE0z-64" value="Print Menu" style="text;html=1;resizable=0;autosize=1;align=center;verticalAlign=middle;points=[];fillColor=none;strokeColor=none;rounded=0;" vertex="1" parent="1">
          <mxGeometry x="285" y="410" width="70" height="20" as="geometry" />
        </mxCell>
        <mxCell id="qolOK50Bnka5AB42VE0z-67" value="Input choice" style="text;html=1;resizable=0;autosize=1;align=center;verticalAlign=middle;points=[];fillColor=none;strokeColor=none;rounded=0;" vertex="1" parent="1">
          <mxGeometry x="280" y="526" width="80" height="20" as="geometry" />
        </mxCell>
        <mxCell id="qolOK50Bnka5AB42VE0z-86" style="edgeStyle=orthogonalEdgeStyle;rounded=0;orthogonalLoop=1;jettySize=auto;html=1;exitX=0.5;exitY=1;exitDx=0;exitDy=0;entryX=0.5;entryY=0;entryDx=0;entryDy=0;" edge="1" parent="1" source="qolOK50Bnka5AB42VE0z-72" target="qolOK50Bnka5AB42VE0z-74">
          <mxGeometry relative="1" as="geometry" />
        </mxCell>
        <mxCell id="qolOK50Bnka5AB42VE0z-72" value="" style="rhombus;whiteSpace=wrap;html=1;" vertex="1" parent="1">
          <mxGeometry x="260" y="620" width="119" height="80" as="geometry" />
        </mxCell>
        <mxCell id="qolOK50Bnka5AB42VE0z-130" style="edgeStyle=orthogonalEdgeStyle;rounded=0;orthogonalLoop=1;jettySize=auto;html=1;" edge="1" parent="1" source="qolOK50Bnka5AB42VE0z-73">
          <mxGeometry relative="1" as="geometry">
            <mxPoint x="380" y="1670" as="targetPoint" />
            <Array as="points">
              <mxPoint x="900" y="660" />
              <mxPoint x="900" y="1700" />
              <mxPoint x="430" y="1700" />
            </Array>
          </mxGeometry>
        </mxCell>
        <mxCell id="qolOK50Bnka5AB42VE0z-73" value="While input is not equal to 8" style="text;html=1;strokeColor=none;fillColor=none;align=center;verticalAlign=middle;whiteSpace=wrap;rounded=0;" vertex="1" parent="1">
          <mxGeometry x="281" y="650" width="80" height="20" as="geometry" />
        </mxCell>
        <mxCell id="qolOK50Bnka5AB42VE0z-83" style="edgeStyle=orthogonalEdgeStyle;rounded=0;orthogonalLoop=1;jettySize=auto;html=1;exitX=0.5;exitY=1;exitDx=0;exitDy=0;" edge="1" parent="1" source="qolOK50Bnka5AB42VE0z-74">
          <mxGeometry relative="1" as="geometry">
            <mxPoint x="321" y="900" as="targetPoint" />
          </mxGeometry>
        </mxCell>
        <mxCell id="qolOK50Bnka5AB42VE0z-113" style="edgeStyle=orthogonalEdgeStyle;rounded=0;orthogonalLoop=1;jettySize=auto;html=1;exitX=1;exitY=0.5;exitDx=0;exitDy=0;entryX=0;entryY=0.5;entryDx=0;entryDy=0;" edge="1" parent="1" source="qolOK50Bnka5AB42VE0z-74" target="qolOK50Bnka5AB42VE0z-103">
          <mxGeometry relative="1" as="geometry" />
        </mxCell>
        <mxCell id="qolOK50Bnka5AB42VE0z-74" value="" style="rhombus;whiteSpace=wrap;html=1;" vertex="1" parent="1">
          <mxGeometry x="276" y="790" width="90" height="60" as="geometry" />
        </mxCell>
        <mxCell id="qolOK50Bnka5AB42VE0z-93" style="edgeStyle=orthogonalEdgeStyle;rounded=0;orthogonalLoop=1;jettySize=auto;html=1;entryX=0.5;entryY=0;entryDx=0;entryDy=0;" edge="1" parent="1" source="qolOK50Bnka5AB42VE0z-76" target="qolOK50Bnka5AB42VE0z-91">
          <mxGeometry relative="1" as="geometry">
            <mxPoint x="319.5" y="1420" as="targetPoint" />
          </mxGeometry>
        </mxCell>
        <mxCell id="qolOK50Bnka5AB42VE0z-118" style="edgeStyle=orthogonalEdgeStyle;rounded=0;orthogonalLoop=1;jettySize=auto;html=1;exitX=1;exitY=0.5;exitDx=0;exitDy=0;entryX=0;entryY=0.5;entryDx=0;entryDy=0;" edge="1" parent="1" source="qolOK50Bnka5AB42VE0z-76" target="qolOK50Bnka5AB42VE0z-108">
          <mxGeometry relative="1" as="geometry" />
        </mxCell>
        <mxCell id="qolOK50Bnka5AB42VE0z-76" value="if n = 6" style="rhombus;whiteSpace=wrap;html=1;" vertex="1" parent="1">
          <mxGeometry x="274.5" y="1340" width="90" height="60" as="geometry" />
        </mxCell>
        <mxCell id="qolOK50Bnka5AB42VE0z-87" style="edgeStyle=orthogonalEdgeStyle;rounded=0;orthogonalLoop=1;jettySize=auto;html=1;entryX=0.5;entryY=0;entryDx=0;entryDy=0;" edge="1" parent="1" source="qolOK50Bnka5AB42VE0z-77" target="qolOK50Bnka5AB42VE0z-79">
          <mxGeometry relative="1" as="geometry" />
        </mxCell>
        <mxCell id="qolOK50Bnka5AB42VE0z-115" style="edgeStyle=orthogonalEdgeStyle;rounded=0;orthogonalLoop=1;jettySize=auto;html=1;exitX=1;exitY=0.5;exitDx=0;exitDy=0;entryX=0;entryY=0.5;entryDx=0;entryDy=0;" edge="1" parent="1" source="qolOK50Bnka5AB42VE0z-77" target="qolOK50Bnka5AB42VE0z-110">
          <mxGeometry relative="1" as="geometry" />
        </mxCell>
        <mxCell id="qolOK50Bnka5AB42VE0z-77" value="if n = 3" style="rhombus;whiteSpace=wrap;html=1;" vertex="1" parent="1">
          <mxGeometry x="274.5" y="1010" width="90" height="60" as="geometry" />
        </mxCell>
        <mxCell id="qolOK50Bnka5AB42VE0z-114" style="edgeStyle=orthogonalEdgeStyle;rounded=0;orthogonalLoop=1;jettySize=auto;html=1;exitX=1;exitY=0.5;exitDx=0;exitDy=0;entryX=0;entryY=0.5;entryDx=0;entryDy=0;" edge="1" parent="1" source="qolOK50Bnka5AB42VE0z-78" target="qolOK50Bnka5AB42VE0z-104">
          <mxGeometry relative="1" as="geometry" />
        </mxCell>
        <mxCell id="qolOK50Bnka5AB42VE0z-78" value="" style="rhombus;whiteSpace=wrap;html=1;" vertex="1" parent="1">
          <mxGeometry x="276" y="900" width="90" height="60" as="geometry" />
        </mxCell>
        <mxCell id="qolOK50Bnka5AB42VE0z-88" value="" style="edgeStyle=orthogonalEdgeStyle;rounded=0;orthogonalLoop=1;jettySize=auto;html=1;" edge="1" parent="1" source="qolOK50Bnka5AB42VE0z-79" target="qolOK50Bnka5AB42VE0z-80">
          <mxGeometry relative="1" as="geometry" />
        </mxCell>
        <mxCell id="qolOK50Bnka5AB42VE0z-116" style="edgeStyle=orthogonalEdgeStyle;rounded=0;orthogonalLoop=1;jettySize=auto;html=1;exitX=1;exitY=0.5;exitDx=0;exitDy=0;entryX=0;entryY=0.5;entryDx=0;entryDy=0;" edge="1" parent="1" source="qolOK50Bnka5AB42VE0z-79" target="qolOK50Bnka5AB42VE0z-111">
          <mxGeometry relative="1" as="geometry" />
        </mxCell>
        <mxCell id="qolOK50Bnka5AB42VE0z-79" value="if n = 4" style="rhombus;whiteSpace=wrap;html=1;" vertex="1" parent="1">
          <mxGeometry x="276" y="1120" width="90" height="60" as="geometry" />
        </mxCell>
        <mxCell id="qolOK50Bnka5AB42VE0z-89" value="" style="edgeStyle=orthogonalEdgeStyle;rounded=0;orthogonalLoop=1;jettySize=auto;html=1;" edge="1" parent="1" source="qolOK50Bnka5AB42VE0z-80" target="qolOK50Bnka5AB42VE0z-76">
          <mxGeometry relative="1" as="geometry" />
        </mxCell>
        <mxCell id="qolOK50Bnka5AB42VE0z-117" style="edgeStyle=orthogonalEdgeStyle;rounded=0;orthogonalLoop=1;jettySize=auto;html=1;exitX=1;exitY=0.5;exitDx=0;exitDy=0;entryX=0;entryY=0.5;entryDx=0;entryDy=0;" edge="1" parent="1" source="qolOK50Bnka5AB42VE0z-80" target="qolOK50Bnka5AB42VE0z-109">
          <mxGeometry relative="1" as="geometry" />
        </mxCell>
        <mxCell id="qolOK50Bnka5AB42VE0z-80" value="if n =5" style="rhombus;whiteSpace=wrap;html=1;" vertex="1" parent="1">
          <mxGeometry x="274.5" y="1230" width="90" height="60" as="geometry" />
        </mxCell>
        <mxCell id="qolOK50Bnka5AB42VE0z-81" value="if n = 1" style="text;html=1;strokeColor=none;fillColor=none;align=center;verticalAlign=middle;whiteSpace=wrap;rounded=0;" vertex="1" parent="1">
          <mxGeometry x="301" y="810" width="40" height="20" as="geometry" />
        </mxCell>
        <mxCell id="qolOK50Bnka5AB42VE0z-85" style="edgeStyle=orthogonalEdgeStyle;rounded=0;orthogonalLoop=1;jettySize=auto;html=1;entryX=0.5;entryY=0;entryDx=0;entryDy=0;" edge="1" parent="1" source="qolOK50Bnka5AB42VE0z-84" target="qolOK50Bnka5AB42VE0z-77">
          <mxGeometry relative="1" as="geometry" />
        </mxCell>
        <mxCell id="qolOK50Bnka5AB42VE0z-84" value="if n = 2" style="text;html=1;strokeColor=none;fillColor=none;align=center;verticalAlign=middle;whiteSpace=wrap;rounded=0;" vertex="1" parent="1">
          <mxGeometry x="299.5" y="920" width="40" height="20" as="geometry" />
        </mxCell>
        <mxCell id="qolOK50Bnka5AB42VE0z-94" style="edgeStyle=orthogonalEdgeStyle;rounded=0;orthogonalLoop=1;jettySize=auto;html=1;entryX=0.5;entryY=0;entryDx=0;entryDy=0;" edge="1" parent="1" source="qolOK50Bnka5AB42VE0z-91" target="qolOK50Bnka5AB42VE0z-92">
          <mxGeometry relative="1" as="geometry" />
        </mxCell>
        <mxCell id="qolOK50Bnka5AB42VE0z-119" style="edgeStyle=orthogonalEdgeStyle;rounded=0;orthogonalLoop=1;jettySize=auto;html=1;entryX=0;entryY=0.5;entryDx=0;entryDy=0;" edge="1" parent="1" source="qolOK50Bnka5AB42VE0z-91" target="qolOK50Bnka5AB42VE0z-107">
          <mxGeometry relative="1" as="geometry" />
        </mxCell>
        <mxCell id="qolOK50Bnka5AB42VE0z-91" value="if n = 7" style="rhombus;whiteSpace=wrap;html=1;" vertex="1" parent="1">
          <mxGeometry x="274.5" y="1440" width="90" height="60" as="geometry" />
        </mxCell>
        <mxCell id="qolOK50Bnka5AB42VE0z-129" style="edgeStyle=orthogonalEdgeStyle;rounded=0;orthogonalLoop=1;jettySize=auto;html=1;entryX=0;entryY=0.5;entryDx=0;entryDy=0;" edge="1" parent="1" source="qolOK50Bnka5AB42VE0z-92" target="qolOK50Bnka5AB42VE0z-72">
          <mxGeometry relative="1" as="geometry">
            <mxPoint x="140" y="660" as="targetPoint" />
            <Array as="points">
              <mxPoint x="100" y="1570" />
              <mxPoint x="100" y="660" />
            </Array>
          </mxGeometry>
        </mxCell>
        <mxCell id="qolOK50Bnka5AB42VE0z-92" value="input choice" style="shape=parallelogram;perimeter=parallelogramPerimeter;whiteSpace=wrap;html=1;fixedSize=1;" vertex="1" parent="1">
          <mxGeometry x="259" y="1540" width="120" height="60" as="geometry" />
        </mxCell>
        <mxCell id="qolOK50Bnka5AB42VE0z-99" style="edgeStyle=orthogonalEdgeStyle;rounded=0;orthogonalLoop=1;jettySize=auto;html=1;entryX=0.5;entryY=0;entryDx=0;entryDy=0;entryPerimeter=0;" edge="1" parent="1" source="qolOK50Bnka5AB42VE0z-95" target="qolOK50Bnka5AB42VE0z-98">
          <mxGeometry relative="1" as="geometry" />
        </mxCell>
        <mxCell id="qolOK50Bnka5AB42VE0z-95" value="Print exit statement" style="rounded=0;whiteSpace=wrap;html=1;" vertex="1" parent="1">
          <mxGeometry x="259" y="1650" width="120" height="60" as="geometry" />
        </mxCell>
        <mxCell id="qolOK50Bnka5AB42VE0z-98" value="end program" style="shape=mxgraph.flowchart.terminator;strokeWidth=2;gradientColor=none;gradientDirection=north;fontStyle=0;html=1;" vertex="1" parent="1">
          <mxGeometry x="259.5" y="1800" width="120" height="30" as="geometry" />
        </mxCell>
        <mxCell id="qolOK50Bnka5AB42VE0z-120" style="edgeStyle=orthogonalEdgeStyle;rounded=0;orthogonalLoop=1;jettySize=auto;html=1;entryX=1;entryY=0.5;entryDx=0;entryDy=0;" edge="1" parent="1" source="qolOK50Bnka5AB42VE0z-103" target="qolOK50Bnka5AB42VE0z-92">
          <mxGeometry relative="1" as="geometry">
            <mxPoint x="820" y="1572" as="targetPoint" />
            <Array as="points">
              <mxPoint x="820" y="820" />
              <mxPoint x="820" y="1570" />
            </Array>
          </mxGeometry>
        </mxCell>
        <mxCell id="qolOK50Bnka5AB42VE0z-103" value="Guess Age" style="rounded=0;whiteSpace=wrap;html=1;" vertex="1" parent="1">
          <mxGeometry x="580" y="790" width="120" height="60" as="geometry" />
        </mxCell>
        <mxCell id="qolOK50Bnka5AB42VE0z-121" style="edgeStyle=orthogonalEdgeStyle;rounded=0;orthogonalLoop=1;jettySize=auto;html=1;" edge="1" parent="1" source="qolOK50Bnka5AB42VE0z-104">
          <mxGeometry relative="1" as="geometry">
            <mxPoint x="820" y="930" as="targetPoint" />
          </mxGeometry>
        </mxCell>
        <mxCell id="qolOK50Bnka5AB42VE0z-104" value="Take a Test" style="rounded=0;whiteSpace=wrap;html=1;" vertex="1" parent="1">
          <mxGeometry x="580" y="900" width="120" height="60" as="geometry" />
        </mxCell>
        <mxCell id="qolOK50Bnka5AB42VE0z-127" style="edgeStyle=orthogonalEdgeStyle;rounded=0;orthogonalLoop=1;jettySize=auto;html=1;" edge="1" parent="1" source="qolOK50Bnka5AB42VE0z-107">
          <mxGeometry relative="1" as="geometry">
            <mxPoint x="820" y="1470" as="targetPoint" />
          </mxGeometry>
        </mxCell>
        <mxCell id="qolOK50Bnka5AB42VE0z-107" value="Search anything&amp;nbsp;&lt;br&gt;on Internet" style="rounded=0;whiteSpace=wrap;html=1;" vertex="1" parent="1">
          <mxGeometry x="580" y="1440" width="120" height="60" as="geometry" />
        </mxCell>
        <mxCell id="qolOK50Bnka5AB42VE0z-125" style="edgeStyle=orthogonalEdgeStyle;rounded=0;orthogonalLoop=1;jettySize=auto;html=1;" edge="1" parent="1" source="qolOK50Bnka5AB42VE0z-108">
          <mxGeometry relative="1" as="geometry">
            <mxPoint x="820" y="1370" as="targetPoint" />
          </mxGeometry>
        </mxCell>
        <mxCell id="qolOK50Bnka5AB42VE0z-108" value="Convert a text&amp;nbsp;&lt;br&gt;file to audio-book" style="rounded=0;whiteSpace=wrap;html=1;" vertex="1" parent="1">
          <mxGeometry x="580" y="1340" width="120" height="60" as="geometry" />
        </mxCell>
        <mxCell id="qolOK50Bnka5AB42VE0z-124" style="edgeStyle=orthogonalEdgeStyle;rounded=0;orthogonalLoop=1;jettySize=auto;html=1;" edge="1" parent="1" source="qolOK50Bnka5AB42VE0z-109">
          <mxGeometry relative="1" as="geometry">
            <mxPoint x="820" y="1260" as="targetPoint" />
          </mxGeometry>
        </mxCell>
        <mxCell id="qolOK50Bnka5AB42VE0z-109" value="A visit to&amp;nbsp;&lt;br&gt;Virtual Zoo" style="rounded=0;whiteSpace=wrap;html=1;" vertex="1" parent="1">
          <mxGeometry x="580" y="1230" width="120" height="60" as="geometry" />
        </mxCell>
        <mxCell id="qolOK50Bnka5AB42VE0z-122" style="edgeStyle=orthogonalEdgeStyle;rounded=0;orthogonalLoop=1;jettySize=auto;html=1;" edge="1" parent="1" source="qolOK50Bnka5AB42VE0z-110">
          <mxGeometry relative="1" as="geometry">
            <mxPoint x="820" y="1040" as="targetPoint" />
          </mxGeometry>
        </mxCell>
        <mxCell id="qolOK50Bnka5AB42VE0z-110" value="Check eligibility for&lt;br&gt;Admission" style="rounded=0;whiteSpace=wrap;html=1;" vertex="1" parent="1">
          <mxGeometry x="580" y="1010" width="120" height="60" as="geometry" />
        </mxCell>
        <mxCell id="qolOK50Bnka5AB42VE0z-123" style="edgeStyle=orthogonalEdgeStyle;rounded=0;orthogonalLoop=1;jettySize=auto;html=1;" edge="1" parent="1" source="qolOK50Bnka5AB42VE0z-111">
          <mxGeometry relative="1" as="geometry">
            <mxPoint x="820" y="1150" as="targetPoint" />
          </mxGeometry>
        </mxCell>
        <mxCell id="qolOK50Bnka5AB42VE0z-111" value="Speak out input&lt;br&gt;&amp;nbsp;string" style="rounded=0;whiteSpace=wrap;html=1;" vertex="1" parent="1">
          <mxGeometry x="580" y="1120" width="120" height="60" as="geometry" />
        </mxCell>
      </root>
    </mxGraphModel>
  </diagram>
</mxfile>
